<?xml version="1.0" encoding="iso-8859-1"?>
<!-- Generator: Adobe Illustrator 19.0.0, SVG Export Plug-In . SVG Version: 6.00 Build 0)  -->
<svg version="1.1" id="Capa_1" xmlns="http://www.w3.org/2000/svg" xmlns:xlink="http://www.w3.org/1999/xlink" x="0px" y="0px"
	 viewBox="0 0 512 512" style="enable-background:new 0 0 512 512;" xml:space="preserve">
<path style="fill:#F7B546;" d="M374.874,217.284c3.999-2.464,8.604-3.769,13.303-3.752c14.13,0,25.583,11.453,25.583,25.583
	s-11.453,25.583-25.583,25.583c-14.13,0-25.583-11.453-25.583-25.583C362.543,230.178,367.208,221.881,374.874,217.284z"/>
<g>
	<path style="fill:#FFCBA8;" d="M140.876,128.256v34.111H123.82c-9.389-0.068-16.987-7.666-17.055-17.055
		c0.026-9.406,7.649-17.03,17.055-17.055C123.82,128.256,140.876,128.256,140.876,128.256z"/>
	<path style="fill:#FFCBA8;" d="M311.429,128.256c9.406,0.026,17.03,7.649,17.055,17.055c-0.068,9.389-7.666,16.987-17.055,17.055
		h-17.055v-34.111C294.373,128.256,311.429,128.256,311.429,128.256z"/>
	<path style="fill:#FFCBA8;" d="M187.778,136.783c7.061,0,12.791-5.731,12.791-12.791c0-7.061-5.731-12.791-12.791-12.791
		s-12.791,5.731-12.791,12.791C174.986,131.053,180.708,136.783,187.778,136.783z M183.514,242.356
		c-25.771-10.446-42.63-35.466-42.638-63.275V94.145l34.111-34.111h85.276l34.111,34.111v84.935
		c-0.009,27.809-16.868,52.829-42.638,63.275c-8.135,3.258-16.817,4.938-25.583,4.946h-17.055
		C200.33,247.293,191.649,245.613,183.514,242.356z M260.263,123.992c0-7.061-5.731-12.791-12.791-12.791
		c-7.061,0-12.791,5.731-12.791,12.791c0,7.061,5.731,12.791,12.791,12.791C254.532,136.783,260.263,131.053,260.263,123.992z"/>
	<path style="fill:#FFCBA8;" d="M414.528,239.115c13.687-0.017,24.798,11.06,24.815,24.747c0,0.026,0,0.043,0,0.068v0.767
		c0,14.13-11.453,25.583-25.583,25.583v162.025c0,28.261-22.905,51.166-51.166,51.166V239.115c0,14.13,11.453,25.583,25.583,25.583
		c14.13,0,25.583-11.453,25.583-25.583H414.528z"/>
	<path style="fill:#FFCBA8;" d="M115.293,401.141v102.332H72.655v-144.97c0.026-43.789,33.181-80.45,76.749-84.85v72.314
		C149.386,369.332,136.186,390.686,115.293,401.141z"/>
	<path style="fill:#FFCBA8;" d="M183.514,273.226v-30.87c8.135,3.258,16.817,4.938,25.583,4.946h17.055
		c8.766-0.009,17.448-1.688,25.583-4.946v47.925c-0.009,18.838-15.29,34.102-34.128,34.094c-15.64-0.009-29.267-10.651-33.07-25.822
		c-0.682-2.703-1.032-5.483-1.023-8.272V273.226z"/>
	<path style="fill:#FFCBA8;" d="M332.066,293.181c-7.88,22.223-24.611,40.191-46.22,49.631v-69.159
		C302.875,275.332,318.993,282.146,332.066,293.181z"/>
	<path style="fill:#FFCBA8;" d="M319.956,401.141c-20.893-10.455-34.094-31.808-34.111-55.174v-3.155
		c21.609-9.44,38.34-27.408,46.22-49.631c19.383,16.151,30.572,40.088,30.529,65.322v144.97h-42.638L319.956,401.141
		L319.956,401.141z"/>
</g>
<path style="fill:#F7B546;" d="M294.373,59.694v34.452l-34.111-34.111h-85.276l-34.111,34.111V59.694
	c0-28.261,22.905-51.166,51.166-51.166h51.166C271.468,8.528,294.373,31.433,294.373,59.694z"/>
<g>
	<path style="fill:#E92A40;" d="M277.318,273.226c2.899,0,5.714,0.171,8.528,0.426v25.157c-0.068,9.389-7.666,16.987-17.055,17.055
		c-9.406-0.026-17.03-7.649-17.055-17.055v-25.583H277.318z"/>
	<path style="fill:#E92A40;" d="M217.625,349.975c-18.838,0-34.111-15.273-34.111-34.111v-17.055l1.023-0.256
		c4.579,18.275,23.11,29.378,41.376,24.798c15.171-3.803,25.805-17.431,25.822-33.07v8.528c0.026,9.406,7.649,17.03,17.055,17.055
		c9.389-0.068,16.987-7.666,17.055-17.055v44.003c-10.745,4.741-22.368,7.18-34.111,7.163L217.625,349.975L217.625,349.975z"/>
	<path style="fill:#E92A40;" d="M183.514,298.809v17.055c0,18.838,15.273,34.111,34.111,34.111h34.111
		c11.743,0.017,23.366-2.422,34.111-7.163v3.155c0.017,23.366,13.218,44.719,34.111,55.174v102.332H115.293V401.141
		c20.893-10.455,34.094-31.808,34.111-55.174v-72.314c2.814-0.256,5.628-0.426,8.528-0.426h25.583v17.055
		c-0.009,2.789,0.341,5.569,1.023,8.272L183.514,298.809z"/>
</g>
<g>
	<circle style="fill:#F7B546;" cx="247.471" cy="123.992" r="12.791"/>
	<circle style="fill:#F7B546;" cx="187.778" cy="123.992" r="12.791"/>
</g>
<g>
	<rect x="106.765" y="349.975" style="fill:#EBB691;" width="17.055" height="153.498"/>
	<rect x="311.429" y="349.975" style="fill:#EBB691;" width="17.055" height="153.498"/>
	<path style="fill:#EBB691;" d="M234.68,187.949h-25.583c-4.707,0-8.528-3.82-8.528-8.528v-42.638h17.055v34.111h17.055V187.949z"/>
</g>
<g>
	<path style="fill:#1479DA;" d="M251.735,358.502h-34.111c-23.536-0.026-42.613-19.102-42.638-42.638v-42.638h17.055v42.638
		c0,14.13,11.453,25.583,25.583,25.583h34.111c10.557,0.026,21.004-2.166,30.657-6.43c19.452-8.502,34.52-24.671,41.632-44.668
		c2.968-8.229,4.477-16.91,4.46-25.651v-42.212c0.171-14.651,12.126-26.41,26.777-26.35c6.848,0.06,13.405,2.814,18.232,7.675
		l12.186,12.186l-12.058,12.058l-12.195-12.195c-1.68-1.757-4.017-2.72-6.447-2.669c-5.168-0.034-9.389,4.127-9.44,9.295v42.212
		c0.026,10.702-1.825,21.319-5.458,31.382c-8.673,24.432-27.067,44.19-50.825,54.577
		C277.437,355.876,264.655,358.553,251.735,358.502z"/>
	<path style="fill:#1479DA;" d="M268.79,324.392c-14.13,0-25.583-11.453-25.583-25.583v-25.583h17.055v25.583
		c0,4.707,3.82,8.528,8.528,8.528c2.226,0.017,4.358-0.861,5.918-2.447c1.671-1.578,2.618-3.778,2.609-6.08v-25.157
		c-0.154-23.63,18.872-42.911,42.502-43.065c0.043,0,0.094,0,0.136,0h42.638v17.055h-42.638c-14.13,0-25.583,11.453-25.583,25.583
		v25.583C294.305,312.905,282.887,324.324,268.79,324.392z"/>
</g>
<path style="fill:#EBB691;" d="M217.625,223.808h-0.077c-11.853,0.026-23.221-4.707-31.552-13.133l12.092-12.024
	c5.142,5.202,12.152,8.118,19.46,8.101l0,0c7.359,0.026,14.42-2.899,19.614-8.118l12.058,12.058
	C240.854,219.101,229.486,223.825,217.625,223.808z"/>
<path style="fill:#F7A419;" d="M388.177,273.226c-18.838,0-34.111-15.273-34.111-34.111c0.034-18.829,15.282-34.076,34.111-34.111
	c18.838,0,34.111,15.273,34.111,34.111S407.015,273.226,388.177,273.226z M388.177,222.06c-3.104-0.017-6.157,0.836-8.801,2.464
	l-0.128,0.085c-5.091,3.044-8.187,8.57-8.127,14.506c0,9.423,7.632,17.055,17.055,17.055c9.423,0,17.055-7.632,17.055-17.055
	C405.233,229.692,397.592,222.06,388.177,222.06z"/>
<circle cx="247.471" cy="123.992" r="12.791"/>
<circle cx="187.778" cy="123.992" r="12.791"/>
<path d="M421.29,231.287c-4.144-18.198-22.249-29.582-40.447-25.438c-1.399,0.316-2.78,0.725-4.127,1.219l-3.223-3.223
	c-4.827-4.869-11.376-7.641-18.232-7.709c-14.65-0.06-26.606,11.7-26.777,26.35v8.101h-8.528
	c-20.253,0.034-37.684,14.309-41.717,34.153c-0.307,0-0.605-0.043-0.921-0.043h-17.055v-17.055
	c26.12-12.851,42.664-39.449,42.638-68.562v-8.187h8.528c14.096-0.068,25.515-11.487,25.583-25.583
	c0-14.13-11.453-25.583-25.583-25.583h-8.528V59.694C302.867,26.743,276.158,0.034,243.207,0h-51.166
	c-32.951,0.034-59.659,26.743-59.694,59.694v60.035h-8.528c-14.13,0-25.583,11.453-25.583,25.583
	c0.077,14.096,11.487,25.506,25.583,25.583h8.528v8.187c-0.017,29.105,16.518,55.686,42.638,68.537v17.055h-17.055
	c-3.164,0-6.234,0.179-9.38,0.469c-48.028,4.648-84.62,45.111-84.424,93.361v144.97c0,4.707,3.82,8.528,8.528,8.528h289.94
	c32.951-0.034,59.659-26.743,59.694-59.694V297.726c15.256-4.085,25.788-18.002,25.583-33.795
	C447.854,248.129,436.759,234.51,421.29,231.287z M405.233,239.115c0,9.423-7.632,17.055-17.055,17.055
	c-9.423,0-17.055-7.632-17.055-17.055c-0.06-5.935,3.036-11.453,8.127-14.497l0.128-0.085c2.644-1.629,5.696-2.49,8.801-2.473
	C397.592,222.06,405.233,229.692,405.233,239.115z M354.067,494.945h-25.583v-144.97h-17.055v35.006
	c-10.353-9.568-16.441-22.888-16.91-36.984c17.26-8.869,31.348-22.871,40.319-40.08c12.374,13.943,19.221,31.945,19.23,50.586
	V494.945z M251.735,341.447h-34.111c-10.344-0.009-19.665-6.242-23.622-15.793c16.876,11.401,39.474,9.193,53.827-5.253
	c1.015-1.117,1.978-2.294,2.865-3.522c6.933,7.044,17.345,9.372,26.623,5.969v14.105
	C269.114,339.921,260.459,341.439,251.735,341.447z M294.373,283.775c9.832,2.26,19.11,6.464,27.288,12.365
	c-5.901,13.081-15.358,24.244-27.288,32.217V283.775z M354.067,256.171v48.608c-3.607-5.134-7.717-9.884-12.271-14.19
	c2.473-8.408,3.735-17.124,3.744-25.89v-17.055h9.739c0.776,2.993,1.97,5.859,3.53,8.528H354.067z M345.539,222.486
	c0.051-5.168,4.272-9.329,9.44-9.295c2.43-0.043,4.776,0.938,6.447,2.703l0.938,0.947c-3.462,3.948-5.935,8.656-7.231,13.747h-9.594
	V222.486z M319.956,247.643h8.528v17.055c-0.009,4.818-0.478,9.619-1.399,14.352c-9.696-6.114-20.441-10.378-31.697-12.561
	C298.415,255.403,308.461,247.694,319.956,247.643z M277.318,281.754v17.055c0.009,2.302-0.938,4.503-2.609,6.08
	c-1.561,1.586-3.692,2.465-5.918,2.447c-4.707,0-8.528-3.82-8.528-8.528v-17.055H277.318z M311.429,136.783
	c4.707,0,8.528,3.82,8.528,8.528c0.009,2.302-0.938,4.503-2.609,6.08c-1.561,1.586-3.692,2.464-5.918,2.447h-8.528v-17.055H311.429z
	 M192.042,17.055h51.166c23.536,0.026,42.613,19.102,42.638,42.638v13.866l-19.554-19.554c-1.603-1.603-3.769-2.499-6.029-2.499
	h-85.276c-2.26,0-4.434,0.895-6.029,2.499l-19.554,19.554V59.694C149.429,36.157,168.505,17.081,192.042,17.055z M123.82,153.839
	c-2.294,0.009-4.494-0.938-6.072-2.609c-1.595-1.552-2.482-3.692-2.456-5.918c0-4.707,3.82-8.528,8.528-8.528h8.528v17.055H123.82z
	 M149.403,179.081V97.676l29.113-29.113h78.216l29.113,29.113v81.405c0.06,24.329-14.702,46.254-37.266,55.353
	c-7.129,2.857-14.744,4.332-22.428,4.341h-17.055c-7.666-0.009-15.264-1.475-22.377-4.324
	C164.131,225.36,149.352,203.436,149.403,179.081z M192.042,253.834c5.594,1.305,11.316,1.97,17.055,1.995h17.055
	c5.739-0.026,11.461-0.691,17.055-1.995v36.447c-0.009,14.13-11.461,25.574-25.591,25.574c-11.76-0.009-21.993-8.025-24.824-19.435
	c-0.503-2.004-0.75-4.068-0.75-6.14C192.042,290.281,192.042,253.834,192.042,253.834z M174.986,281.754v8.528
	c0.017,2.865,0.333,5.722,0.938,8.528h-0.938v17.055c0.026,23.536,19.102,42.613,42.638,42.638h34.111
	c8.869-0.017,17.686-1.305,26.188-3.82c2.644,21.353,15.017,40.293,33.505,51.294v88.969H123.82v-88.969
	c21.166-12.578,34.128-35.39,34.111-60.009v-64.213H174.986z M81.182,358.502c-0.128-35.85,24.705-66.968,59.694-74.796v62.252
	c0.034,14.821-6.157,28.977-17.055,39.014v-34.997h-17.055v144.97H81.182V358.502z M413.76,281.754c-4.707,0-8.528,3.82-8.528,8.528
	v162.025c-0.026,20.253-14.267,37.709-34.111,41.785V268.484c15.972,9.517,36.626,4.281,46.143-11.691
	c1.475-2.482,2.635-5.142,3.428-7.922c6.285,2.72,10.293,8.98,10.122,15.827C430.816,274.121,423.175,281.754,413.76,281.754z"/>
<path d="M200.569,136.783v42.638c0,4.707,3.82,8.528,8.528,8.528h25.583v-17.055h-17.055v-34.111H200.569z"/>
<path d="M217.625,223.808c11.87,0.026,23.263-4.699,31.638-13.116l-12.058-12.058c-5.193,5.219-12.254,8.144-19.614,8.118l0,0
	c-7.308,0.017-14.318-2.899-19.46-8.101l-12.092,12.024c8.331,8.425,19.699,13.158,31.552,13.133L217.625,223.808z"/>
<g>
</g>
<g>
</g>
<g>
</g>
<g>
</g>
<g>
</g>
<g>
</g>
<g>
</g>
<g>
</g>
<g>
</g>
<g>
</g>
<g>
</g>
<g>
</g>
<g>
</g>
<g>
</g>
<g>
</g>
</svg>
